<mxfile host="app.diagrams.net" modified="2022-04-22T16:08:43.785Z" agent="5.0 (Windows NT 10.0; Win64; x64) AppleWebKit/537.36 (KHTML, like Gecko) Chrome/100.0.4896.127 Safari/537.36" etag="lGbIsqvFUnKFoWBKplBV" version="17.4.6" type="github">
  <diagram id="GayryXfCNQxOPDQpsV0P" name="Page-1">
    <mxGraphModel dx="687" dy="739" grid="1" gridSize="10" guides="1" tooltips="1" connect="1" arrows="1" fold="1" page="1" pageScale="1" pageWidth="850" pageHeight="1100" math="0" shadow="0">
      <root>
        <mxCell id="0" />
        <mxCell id="1" parent="0" />
        <mxCell id="gdQ4edxLLALq7yD2n3Pe-1" value="&lt;font color=&quot;#069968&quot;&gt;&lt;span style=&quot;font-size: 40px&quot;&gt;&amp;nbsp;ABILITY to&lt;br&gt;IMAGINE&amp;nbsp;&lt;br&gt;UNKNOWN /&lt;br&gt;/ UNMET&lt;br&gt;&amp;nbsp;TYPES of&amp;nbsp;&lt;br&gt;OTHER(other OTHERS)&lt;br&gt;&lt;/span&gt;&lt;/font&gt;" style="text;html=1;align=center;verticalAlign=middle;resizable=0;points=[];autosize=1;strokeColor=none;fillColor=none;" vertex="1" parent="1">
          <mxGeometry x="90" y="190" width="450" height="150" as="geometry" />
        </mxCell>
        <mxCell id="gdQ4edxLLALq7yD2n3Pe-2" value="" style="endArrow=none;html=1;rounded=0;fontSize=40;fontColor=#069968;strokeColor=#069968;strokeWidth=2;" edge="1" parent="1">
          <mxGeometry width="50" height="50" relative="1" as="geometry">
            <mxPoint x="363" y="408" as="sourcePoint" />
            <mxPoint x="513" y="408" as="targetPoint" />
          </mxGeometry>
        </mxCell>
        <mxCell id="gdQ4edxLLALq7yD2n3Pe-3" value="" style="rounded=0;whiteSpace=wrap;html=1;fontSize=40;fontColor=#069968;fillColor=none;strokeColor=#069968;strokeWidth=2;" vertex="1" parent="1">
          <mxGeometry x="80" y="110" width="470" height="310" as="geometry" />
        </mxCell>
      </root>
    </mxGraphModel>
  </diagram>
</mxfile>
